<?xml version="1.0" encoding="UTF-8"?>
<svg width="300px" height="300px" viewBox="0 0 300 300" version="1.1" xmlns="http://www.w3.org/2000/svg" xmlns:xlink="http://www.w3.org/1999/xlink">
    <!-- Generator: Sketch 54 (76480) - https://sketchapp.com -->
    <title>Artboard@svg</title>
    <desc>Created with Sketch.</desc>
    <g id="Artboard" stroke="none" stroke-width="1" fill="none" fill-rule="evenodd">
        <g id="Group-67" transform="translate(15.000000, 20.783292)">
            <path d="M198.478697,63.4116546 C192.281946,64.4240605 187.000011,59.1670004 188.016106,52.9994323 C188.631488,49.2631724 191.657757,46.2511552 195.411696,45.6386715 C201.608447,44.6262656 206.890382,49.8833258 205.873186,56.0519895 C205.257804,59.7871538 202.231535,62.799171 198.478697,63.4116546 M207.205229,30.4251908 C193.612888,25.44205 178.090736,28.2535582 167.625943,38.2198398 C164.833057,40.8790489 161.042789,42.5236607 156.85401,42.5236607 C154.526788,42.5236607 152.320661,42.0152664 150.338009,41.1047584 C137.026388,34.9886872 121.452495,36.2530989 110.073987,45.4567891 C102.981134,51.1937559 96.9296969,57.90478 92.1970918,65.3466209 C83.900997,78.3939474 72.0282021,88.8280833 57.6993844,94.7480283 C56.6425571,95.1841079 55.6022426,95.6410054 54.5784411,96.1187207 C45.7781516,100.219841 40.2738424,109.507899 41.4935973,119.102746 C41.5992801,119.928886 41.5948766,120.791184 41.4660758,121.672109 C40.8936276,125.586964 37.7715834,128.777577 33.8525153,129.432792 C33.6972938,129.459088 33.5420723,129.481002 33.3879516,129.499628 C25.4232162,130.451772 19.3332485,137.185805 19.2958192,145.170007 L19.2958192,145.386951 C19.2958192,176.792352 50.8608307,202.251512 89.797213,202.251512 C103.935582,202.251512 117.100788,198.894357 128.135827,193.11685 C140.227694,186.78493 153.704444,183.365321 167.35293,183.964656 C168.887531,184.032588 170.430939,184.065459 171.984255,184.065459 C222.388315,184.065459 263.250105,148.291591 263.250105,104.160993 C263.250105,70.9608719 240.1232,42.4907904 207.205229,30.4251908" id="Fill-8" fill="#1A3D75"></path>
            <path d="M120.843993,63.5833191 C120.445537,62.6494869 119.502231,62.0614781 118.481874,62.1149335 L116.696526,62.208753 L117.68166,60.8101866 C118.305761,59.925446 118.312365,58.7483375 117.703674,57.8548695 C115.054271,53.9755385 111.770859,50.8391278 108.178149,48.3518178 C107.259058,47.7158082 106.052683,47.6623529 105.082959,48.2187249 L103.263489,49.2627405 L103.40438,48.2492708 C103.62232,46.694702 102.79789,45.1663154 101.357063,44.5161238 C84.6582261,36.9887381 65.9461944,40.5811557 72.2235307,47.3852578 C72.8399271,48.0529042 73.5796027,48.5929123 74.3688101,49.0467373 C75.8547656,49.8987501 79.2581539,51.9245987 83.3054563,54.7915508 C84.4479909,55.5999266 85.9306443,55.7668382 87.2184723,55.2137389 L87.6235328,55.0413727 C88.0957364,54.8384606 88.5976591,55.2606487 88.4732792,55.7570198 C88.1023407,57.2297692 88.6130691,58.7788834 89.7864235,59.7541707 C91.3494285,61.0545539 92.9124335,62.4422111 94.4193024,63.9029603 C95.5838512,65.0309772 97.3152645,65.3582549 98.8100256,64.7178816 L99.169957,64.5640611 C99.6432614,64.361149 100.145184,64.7833371 100.019703,65.2797082 L99.5673125,67.0753715 C99.275625,68.2284798 99.5254857,69.4514072 100.244248,70.4037851 C101.319639,71.825261 102.288262,73.2871012 103.114894,74.7783963 C103.693866,75.8235029 104.71092,76.5544229 105.894181,76.7693352 L106.855099,76.9438833 C107.362525,77.0355211 107.543041,77.6638941 107.162196,78.0075357 L107.019104,78.1351739 C105.972331,79.0766426 105.528746,80.4915729 105.789613,81.8694118 L105.812728,81.9905045 C108.995975,99.5794958 113.542999,145.539095 113.542999,145.539095 C113.542999,145.539095 132.743745,91.482647 120.843993,63.5833191" id="Fill-9" fill="#0C326D"></path>
            <path d="M120.85302,62.9493897 C120.454646,62.0097307 119.512634,61.4120639 118.486985,61.4666953 L117.778275,61.5038446 C117.336982,61.5267897 117.061862,61.0351077 117.314973,60.6756336 L117.678131,60.1588211 C118.302104,59.2727009 118.309808,58.0948494 117.700141,57.1999881 C115.051282,53.3124224 111.769647,50.1711207 108.178777,47.6810245 C107.260975,47.0440232 106.054848,46.9904845 105.084223,47.5466314 L104.213742,48.0470545 C103.826373,48.2699503 103.352065,47.9519959 103.412592,47.51276 C103.627186,45.9885458 102.812829,44.4916473 101.402012,43.8535533 C85.3184776,36.5701039 67.3443159,39.6556816 71.6207864,45.9481186 C72.0103568,46.5239329 72.6871528,46.8549988 73.3837575,46.792719 C79.9382244,46.2147195 89.3000191,47.6209301 97.770424,52.0908658 C98.5539667,52.5038787 99.4794715,52.5617879 100.292727,52.2121473 L102.165746,51.4079741 L101.92144,52.3793192 C101.639716,53.4970763 102.065603,54.6705574 102.998811,55.3556343 C105.274606,57.0251678 107.412841,58.9634876 109.323277,61.2022796 C109.931843,61.9135796 110.944286,62.1331975 111.807063,61.7627971 L112.423333,61.4972888 C112.949363,61.2711151 113.509508,61.7431298 113.369747,62.2949063 L112.791994,64.5916076 C112.630224,65.2318868 112.724865,65.9082227 113.055009,66.4807591 L113.060512,66.4895001 C123.095801,83.9223587 117.597796,115.211909 112.606013,134.73824 C112.549888,134.958951 112.533381,135.188402 112.557592,135.414576 L112.5763,135.592674 C112.798597,137.71674 115.810615,137.989897 116.409276,135.936851 C121.260198,119.323463 129.730603,83.830578 120.85302,62.9493897" id="Fill-10" fill="#7384A8"></path>
            <path d="M120.909514,111.589794 C116.860592,100.652298 112.077701,92.7335512 106.954194,87.0580846 C106.613579,86.680741 106.068596,86.5648036 105.598327,86.7583973 L103.526071,87.6093344 C102.508621,88.0271468 101.506554,86.9826159 101.971329,85.9905851 L102.823965,84.1727733 C103.052506,83.684961 102.931643,83.0998049 102.519609,82.7519926 C96.268777,77.4768384 89.6982069,75.0377768 83.4506715,74.1769959 C83.0144647,74.1168397 82.5804555,74.3060584 82.32005,74.6604332 L81.7344122,75.4544954 C81.0817502,76.3371513 79.6808343,75.963089 79.559971,74.8737144 C79.4951443,74.2754334 78.9941109,73.8094961 78.3897942,73.7996523 C73.5607548,73.7263711 69.0558489,74.4405896 65.2090987,75.2937142 C59.7537675,76.5034013 45.9775454,83.0505862 46.174223,88.7873027 C46.332444,93.4412072 67.2934418,92.6176137 85.2592264,103.723547 C85.6350015,103.956516 86.1074672,103.969641 86.4931311,103.751984 L87.3886185,103.244485 C88.3445376,102.703079 89.4718628,103.613078 89.1345443,104.656515 L88.9554468,105.21214 C88.7983245,105.699952 88.9719282,106.229327 89.3828635,106.538858 C92.0671282,108.559014 94.6360233,110.895263 96.9994508,113.615418 C97.574101,114.276043 98.1344673,114.962918 98.6816486,115.670573 C98.9717206,116.04573 99.4540751,116.221823 99.9177508,116.112448 L101.323062,115.781042 C102.393252,115.528386 103.218418,116.717292 102.600917,117.62401 L101.804318,118.794322 C101.535122,119.189166 101.530727,119.702134 101.786737,120.105728 C113.579702,138.691814 118.338421,167.118366 119.792077,177.977112 C119.959088,179.217424 121.674249,179.40883 122.119246,178.239612 C125.760528,168.670397 132.71017,143.468219 120.909514,111.589794" id="Fill-11" fill="#0C326D"></path>
            <path d="M120.909304,111.838991 C116.860394,100.829381 112.077516,92.8584229 106.954024,87.1455361 C106.61341,86.7657046 106.068428,86.6490027 105.598161,86.8438728 L103.52591,87.7004205 C102.508463,88.1209876 101.506399,87.0695698 101.971172,86.0709982 L102.823806,84.2412009 C103.052347,83.7501723 102.931484,83.1611581 102.519451,82.8110525 C96.2686367,77.5011175 89.6980849,75.0459744 83.450567,74.179518 C83.0143615,74.1189652 82.5803535,74.3094314 82.3199487,74.6661428 L81.7343126,75.4643396 C81.0816524,76.3539161 79.6807405,75.9773874 79.5598775,74.8808302 C79.495051,74.2786045 78.9940189,73.8095951 78.389704,73.7996865 C73.5606781,73.7259221 69.0557848,74.4448496 65.2090454,75.3035993 C59.7537294,76.5212622 45.9775459,83.1116149 46.1742229,88.8861555 C46.2016918,89.7008667 46.8598457,90.3493327 48.022328,90.9229334 C50.5329819,92.1615146 53.4644588,92.1549088 56.0718032,91.1343179 C57.5968744,90.5364961 58.9714162,90.0961117 60.0328131,89.8583041 C62.4709492,89.3144294 65.1738852,88.8267036 68.0559182,88.5602711 C68.5360739,88.5162326 68.9470081,88.1958529 69.0986362,87.7367522 L70.3786851,83.8448549 C70.7225953,82.797841 72.1718524,82.7207737 72.625638,83.7259512 L74.4341879,87.7400551 C74.6176799,88.1474107 75.0121327,88.4149442 75.458227,88.4457711 C77.4590589,88.5811893 79.503841,88.8652373 81.5727957,89.3408524 C81.9936186,89.437737 82.4353179,89.3089246 82.7297841,88.9929487 L85.1657228,86.3847721 C85.9161721,85.5788686 87.2643438,86.1194404 87.254455,87.2215024 L87.2258874,90.3295154 C87.2203936,90.8183421 87.5126623,91.2554237 87.9587566,91.4513947 C92.4493661,93.4166102 96.9377781,96.4772818 101.202044,101.070491 C101.467943,101.356741 101.855803,101.502068 102.243663,101.450323 L105.565198,101.008837 C106.656261,100.864612 107.356168,102.138423 106.649669,102.983962 L105.331164,104.564942 C104.974068,104.992114 104.958686,105.60535 105.286115,106.055643 C108.297801,110.201862 111.14797,115.257475 113.74982,121.390929 C113.887165,121.71241 114.157458,121.963429 114.488183,122.070222 L117.90531,123.175587 C118.952423,123.513582 119.038126,124.96575 118.03716,125.425951 L116.767,126.010562 C116.197845,126.27259 115.92865,126.927662 116.138512,127.518878 C124.215457,150.211887 122.951889,169.453383 120.266533,182.014247 C120.240163,182.140858 120.23357,182.270771 120.247854,182.398483 C120.298397,182.868593 120.322569,183.119612 120.322569,183.119612 C120.322569,183.119612 136.05124,153.01053 120.909304,111.838991" id="Fill-12" fill="#7384A8"></path>
            <path d="M126.132762,107.78088 C131.046752,99.9691912 136.048531,94.6058293 140.954839,91.0291719 C141.280756,90.7920275 141.724091,90.7887789 142.058786,91.0129291 L143.538031,91.9972408 C144.263388,92.4812753 145.212607,91.8326475 145.010692,90.992355 L144.637588,89.4525406 C144.537728,89.0399743 144.726475,88.6068338 145.103968,88.4032578 C150.824519,85.3149662 156.337669,84.4692595 161.344935,84.7908663 C161.696091,84.8136061 162.003353,85.0269278 162.150399,85.3420375 L162.479608,86.0480565 C162.84503,86.8331236 163.997261,86.764904 164.266115,85.9430199 C164.413161,85.491471 164.878443,85.2099297 165.352504,85.2987235 C169.126334,86.0047424 172.523769,87.2684298 175.384593,88.5353656 C179.442641,90.3318157 189.126866,97.5663444 188.051451,101.967052 C187.179047,105.538295 170.973195,101.591302 155.184341,107.334745 C154.854035,107.454941 154.484224,107.391053 154.217565,107.161489 L153.601944,106.627643 C152.943527,106.058063 151.91859,106.583246 152.01406,107.44303 L152.063442,107.899993 C152.108434,108.302814 151.886766,108.683977 151.516955,108.857234 C149.100563,109.99531 146.722578,111.394354 144.442258,113.122584 C143.88809,113.542731 143.341603,113.984534 142.801701,114.444746 C142.514192,114.68947 142.110362,114.749027 141.767985,114.590931 L140.724393,114.11231 C139.931,113.748472 139.097004,114.536788 139.4317,115.334849 L139.864061,116.364641 C140.01001,116.713319 139.932097,117.109642 139.667633,117.381438 C127.48581,129.877541 119.205111,151.090595 116.324534,159.252045 C115.996423,160.184379 114.629109,160.059852 114.469991,159.086368 C113.170714,151.117667 111.806692,130.546743 126.132762,107.78088" id="Fill-13" fill="#0C326D"></path>
            <path d="M126.132332,107.511946 C131.046356,99.5598576 136.04817,94.1000999 140.954513,90.4591591 C141.280432,90.2177525 141.723769,90.2144456 142.058467,90.4426244 L143.537722,91.4446272 C144.263084,91.9373612 145.212309,91.2770756 145.010393,90.4216805 L144.637287,88.854191 C144.537427,88.4342096 144.726174,87.9932843 145.10367,87.7860494 C150.824261,84.6422519 156.337449,83.7813452 161.34475,84.1087323 C161.695908,84.1318809 162.003172,84.3490366 162.150219,84.6698097 L162.479431,85.388518 C162.844855,86.1876951 163.997094,86.1182494 164.265949,85.2815936 C164.412997,84.821929 164.878282,84.5353275 165.352346,84.6257172 C169.126202,85.3444255 172.523661,86.6308251 175.384505,87.9205316 C179.44258,89.7492694 189.126873,97.1138244 188.05145,101.593626 C187.900013,102.227456 187.283291,102.627595 186.285781,102.888844 C184.130546,103.453228 181.845821,102.975926 179.978097,101.758973 C178.884019,101.046878 177.883217,100.481392 177.094208,100.126447 C175.281352,99.3085302 173.251217,98.4928183 171.047698,97.8215096 C170.680079,97.7090736 170.411223,97.3927097 170.366231,97.010207 L169.989833,93.762792 C169.889972,92.8897599 168.771752,92.5965446 168.258182,93.308639 L166.207197,96.1537096 C165.998697,96.4436179 165.648636,96.5891233 165.29638,96.5406215 C163.71507,96.3256704 162.075598,96.2176437 160.386745,96.257327 C160.043269,96.2650432 159.719544,96.0941846 159.540673,95.799867 L158.059223,93.3692662 C157.60162,92.6185908 156.464744,92.8247234 156.296846,93.6878347 L155.822782,96.1206402 C155.749259,96.5031429 155.451871,96.7985628 155.072181,96.8790317 C151.257722,97.6925389 147.270976,99.3625435 143.212901,102.266037 C142.960505,102.446816 142.634586,102.498625 142.340491,102.39611 L139.822026,101.516464 C138.994609,101.227658 138.246203,102.110611 138.661009,102.885537 L139.436849,104.332874 C139.64535,104.724195 139.560852,105.204804 139.232739,105.504633 C136.222652,108.260416 133.192813,111.751443 130.184921,116.126524 C130.026899,116.355805 129.777796,116.507924 129.501259,116.538789 L126.662362,116.852948 C125.792147,116.94885 125.493663,118.0688 126.199272,118.589092 L127.096921,119.25048 C127.498558,119.547002 127.602808,120.102568 127.344926,120.531368 C117.423602,136.963552 115.334209,152.203033 115.419804,162.449035 C115.420901,162.552653 115.40444,162.655168 115.373714,162.752171 C115.25849,163.111526 115.200329,163.30443 115.200329,163.30443 C115.200329,163.30443 107.75138,137.247949 126.132332,107.511946" id="Fill-14" fill="#7384A8"></path>
            <path d="M268.320606,222.066694 L63.8420363,222.066694 C63.2177114,222.066694 62.7114125,221.607952 62.7114125,221.04227 C62.7114125,220.475589 63.2177114,220.016848 63.8420363,220.016848 L268.320606,220.016848 C268.944931,220.016848 269.452333,220.475589 269.452333,221.04227 C269.452333,221.607952 268.944931,222.066694 268.320606,222.066694" id="Fill-15" fill="#001433"></path>
            <path d="M243.256334,211.13418 L125.43164,211.13418 C120.098187,211.13418 115.774915,206.80209 115.774915,201.457758 L115.774915,129.250795 C115.774915,123.906464 120.098187,119.574374 125.43164,119.574374 L243.256334,119.574374 C248.589788,119.574374 252.913059,123.906464 252.913059,129.250795 L252.913059,201.457758 C252.913059,206.80209 248.589788,211.13418 243.256334,211.13418" id="Fill-16" fill="#003180"></path>
            <polygon id="Fill-17" fill="#E6EFFF" points="122.666279 203.618076 246.710831 203.618076 246.710831 125.723913 122.666279 125.723913"></polygon>
            <g id="Group-12" transform="translate(146.096917, 150.322070)">
                <path d="M4.17905732,28.0486144 L72.2356694,28.0486144 C74.5459325,28.0486144 76.4160809,26.1522501 76.4160809,23.8109749 L76.4160809,4.23763948 C76.4160809,1.89773745 74.5459325,0 72.2356694,0 L4.17905732,0 C1.87150266,0 0,1.89773745 0,4.23763948 L0,23.8109749 C0,26.1522501 1.87150266,28.0486144 4.17905732,28.0486144" id="Fill-76" fill="#FF8B08"></path>
                <path d="M52.5637813,21.2782592 L66.4131549,21.2782592 C67.1297314,21.2782592 67.7104515,20.7039828 67.7104515,19.9924082 L67.7104515,7.08901256 C67.7104515,6.37875813 67.1297314,5.80316159 66.4131549,5.80316159 L52.5637813,5.80316159 C51.8472047,5.80316159 51.2664847,6.37875813 51.2664847,7.08901256 L51.2664847,19.9924082 C51.2664847,20.7039828 51.8472047,21.2782592 52.5637813,21.2782592" id="Fill-77" fill="#FFFFFE"></path>
                <path d="M8.87752472,8.70474239 L45.2894803,8.70474239 C45.9187457,8.70474239 46.4300239,8.27206566 46.4300239,7.73812416 C46.4300239,7.20418266 45.9187457,6.77035519 45.2894803,6.77035519 L8.87752472,6.77035519 C8.24825929,6.77035519 7.73833731,7.20418266 7.73833731,7.73812416 C7.73833731,8.27206566 8.24825929,8.70474239 8.87752472,8.70474239" id="Fill-78" fill="#FFFFFE"></path>
                <path d="M8.87358978,14.507904 L24.0143438,14.507904 C24.6414356,14.507904 25.1495963,14.0752273 25.1495963,13.5412858 L25.1495963,13.540135 C25.1495963,13.0061935 24.6414356,12.5735168 24.0143438,12.5735168 L8.87358978,12.5735168 C8.24649794,12.5735168 7.73833731,13.0061935 7.73833731,13.540135 L7.73833731,13.5412858 C7.73833731,14.0752273 8.24649794,14.507904 8.87358978,14.507904" id="Fill-80" fill="#FFFFFE"></path>
                <path d="M18.529003,20.3110656 L45.3109491,20.3110656 C45.9283697,20.3110656 46.4300239,19.8772381 46.4300239,19.3432966 C46.4300239,18.8105059 45.9283697,18.3766784 45.3109491,18.3766784 L18.529003,18.3766784 C17.9115825,18.3766784 17.4112589,18.8105059 17.4112589,19.3432966 C17.4112589,19.8772381 17.9115825,20.3110656 18.529003,20.3110656" id="Fill-81" fill="#FFFFFE"></path>
            </g>
            <path d="M252.604075,220.70013 L117.462172,220.70013 C112.344124,220.70013 108.194415,216.418034 108.194415,211.13418 L261.871832,211.13418 C261.871832,216.418034 257.722123,220.70013 252.604075,220.70013" id="Fill-20" fill="#BFBDD4"></path>
            <path d="M252.604075,217.407342 L117.462172,217.407342 C113.46709,217.407342 110.07297,214.791449 108.771251,211.13418 L108.194415,211.13418 C108.194415,216.418034 112.344124,220.70013 117.462172,220.70013 L252.604075,220.70013 C257.722123,220.70013 261.871832,216.418034 261.871832,211.13418 L261.296093,211.13418 C259.993277,214.791449 256.599157,217.407342 252.604075,217.407342" id="Fill-21" fill="#AAA7C7"></path>
            <polygon id="Fill-22" fill="#AAA7C7" points="111.640097 211.13418 257.047877 211.13418 257.047877 209.767616 111.640097 209.767616"></polygon>
            <path d="M193.24178,214.55059 L175.446195,214.55059 C173.699163,214.55059 172.2841,213.020512 172.2841,211.13418 L196.403874,211.13418 C196.403874,213.020512 194.987694,214.55059 193.24178,214.55059" id="Fill-23" fill="#4B4589"></path>
            <polygon id="Fill-24" fill="#7B79AC" points="126.801098 209.084333 144.029508 209.084333 144.029508 207.034487 126.801098 207.034487"></polygon>
            <polygon id="Fill-25" fill="#7B79AC" points="225.347603 209.084333 242.576013 209.084333 242.576013 207.034487 225.347603 207.034487"></polygon>
            <polygon id="Fill-79" fill="#E0DFE9" points="208.808329 203.618076 246.021695 166.037559 246.021695 188.521954 231.143938 203.618076"></polygon>
            <polyline id="Fill-82" fill="#F1B4A7" points="110.261824 135.973145 103.7778 89.8895251 86.2826792 87.4601133 77.1832769 135.639632 110.261824 135.973145"></polyline>
            <path d="M96.7306932,207.975056 L96.7503817,213.249031 C96.754757,214.322642 96.6103743,215.390719 96.3216088,216.423378 L95.8687722,218.048183 C95.4968773,219.381895 96.4878677,220.705646 97.8584096,220.700112 C101.407818,220.687937 107.476267,220.696792 109.040413,220.700112 C109.296364,220.700112 109.546846,220.526342 109.569816,220.268454 C109.701073,218.727767 105.305057,217.696215 101.994099,216.400134 C99.471777,215.411748 99.6063155,210.823998 99.9180509,208.145505 C100.035088,207.133876 99.2005126,206.272773 98.1974903,206.356891 C97.3661959,206.427728 96.7274118,207.130555 96.7306932,207.975056" id="Fill-83" fill="#F1B4A7"></path>
            <path d="M72.0843066,206.915946 L70.2540358,212.771179 C70.1738291,213.030004 70.0535192,213.274867 69.8964479,213.499325 L68.599774,215.356203 C67.776542,216.534338 68.3691799,218.144205 69.7783659,218.559827 C69.7783659,218.559827 72.3928793,219.445845 75.0887134,220.299644 C77.8480444,221.174922 81.3180953,220.443554 81.3180953,219.742258 C81.3180953,218.182867 79.808651,219.42007 77.283256,217.790872 C76.4366304,217.2453 75.5632693,216.673953 74.7845966,216.084348 C72.6101056,214.43904 74.5083293,210.273147 75.8395366,207.927617 C76.3185485,207.084558 75.8105731,206.037446 74.8347257,205.835542 L74.2042125,205.706666 C73.2784942,205.516575 72.356118,206.042816 72.0843066,206.915946" id="Fill-84" fill="#F1B4A7"></path>
            <path d="M90.9660049,136.934904 L110.563133,135.289863 C110.563133,135.289863 112.535918,149.553786 107.582714,175.374395 C105.260252,187.482334 100.420339,210.620763 100.420339,210.620763 C99.2198925,211.146959 98.0009272,211.27878 96.7590858,210.969381 C96.7590858,210.969381 96.3908908,200.7625 96.1664879,189.771229 C95.9497103,179.228803 95.8930649,167.965173 95.2209455,164.279628 C93.8494733,156.751658 90.9660049,136.934904 90.9660049,136.934904" id="Fill-85" fill="#4B4589"></path>
            <path d="M100.87105,166.249266 C105.681827,147.142365 99.3819233,137.470495 99.3819233,137.470495 L90.9660049,136.656427 C90.9660049,136.656427 93.7976988,156.694163 95.1445453,164.30608 C95.5553388,166.62821 95.7318516,171.921301 95.8591548,178.16175 C95.9351089,181.937966 99.3252252,172.391675 100.87105,166.249266" id="Fill-86" fill="#393275"></path>
            <path d="M94.8753512,136.649615 C96.8951768,147.557021 101.404454,163.868335 92.7163772,179.192544 C84.0283006,194.515659 74.9032112,210.447234 74.9032112,210.447234 C73.7269726,210.495385 72.6616178,210.066399 71.6701857,209.309108 C71.6701857,209.309108 73.1942952,202.362162 75.395666,194.250826 C77.915556,184.971817 81.1061848,174.056751 80.1962848,168.365027 C78.4928044,157.699474 76.5360304,143.494786 77.128498,136.595992 C77.7220528,129.698292 93.8143448,130.914117 94.8753512,136.649615" id="Fill-87" fill="#4B4589"></path>
            <path d="M110.927974,134.770797 L103.556183,89.8880618 L85.5264993,87.4601133 L75.8381126,134.85358 C75.6559834,135.74459 76.2434612,136.609458 77.1529968,136.778293 C80.5101716,137.402436 88.6071486,138.706273 97.6680779,138.706273 C104.432402,138.706273 108.233794,137.415507 109.962912,136.598566 C110.663665,136.267432 111.052355,135.523472 110.927974,134.770797" id="Fill-88" fill="#FFFFFE"></path>
            <path d="M76.7570657,152.45455 C76.4592813,151.257827 76.3007831,150.027361 76.1302775,149.565093 C76.0582329,149.372763 75.7028128,148.910495 75.607954,148.769902 C75.3329837,148.358247 74.8382773,147.759886 74.8382773,147.272873 L74.802255,145.228096 C74.802255,144.23945 74.2919389,143.489248 73.2364852,143.489248 C72.0933772,143.489248 71.5734552,144.402537 71.705537,145.466541 L71.705537,146.898335 C71.8112024,147.749763 71.4978083,148.564075 71.2288417,149.382886 C70.6825033,151.04975 71.1363845,153.020294 71.6575072,154.569061 C71.986511,155.539712 73.3061283,156.133574 75.1108461,156.834287 C75.9981957,157.179583 77.4811142,157.465266 76.9119617,156.466497 C76.4352664,155.628566 73.7792214,154.40035 74.5741137,151.76396 C74.6125375,151.634615 74.7386156,151.30844 74.9151249,151.303941 C75.4410506,151.290444 75.5371101,152.381442 75.7892663,152.914569 C76.142285,153.662521 76.7018315,153.965076 77.0440435,153.886344 C77.4066681,153.801989 76.9707981,153.308228 76.7570657,152.45455" id="Fill-89" fill="#F1B4A7"></path>
            <path d="M91.6551413,90.0001448 C91.6551413,93.2356869 91.067612,96.4407051 89.9612257,99.482202 C87.7996847,105.432198 84.5568282,116.682466 86.4829215,126.59513 C89.2581526,140.867272 92.8269298,146.637395 88.2019079,149.964509 C83.575796,153.291623 74.7061748,147.740619 74.4489264,145.890647 C74.193858,144.040676 76.175543,121.31012 78.4221068,111.463955 C80.6686706,101.616701 86.9614472,87.4601133 86.9614472,87.4601133 L89.6276747,87.7446404 C90.7809326,87.8678265 91.6551413,88.8402334 91.6551413,90.0001448" id="Fill-90" fill="#7773A8"></path>
            <path d="M82.7329765,114.685492 C84.387089,110.457411 86.2671499,105.137932 87.6953141,101.088502 C88.7515161,98.0990702 88.8985957,95.4052248 88.8985957,92.2284795 L86.5932829,87.4601133 C86.5932829,87.4601133 80.680257,101.743557 78.4836552,111.523905 C76.2870535,121.30317 80.5523617,120.262661 82.7329765,114.685492" id="Fill-91" fill="#665D99"></path>
            <path d="M83.332188,88.7099084 C83.332188,88.7099084 67.5063074,109.625347 67.5354073,121.332932 C67.553315,128.38983 70.1890964,142.752278 70.8158639,146.065081 C70.8953291,146.48757 71.2456474,146.807738 71.681027,146.853948 C71.9585955,146.882554 72.2798138,146.905659 72.5764092,146.905659 C72.8774815,146.905659 73.2669727,146.86385 73.6284833,146.812139 C74.2250317,146.728522 74.6615305,146.216913 74.649219,145.622787 C74.5563231,141.237256 74.2720392,123.934984 75.455063,120.47365 C76.811567,116.501807 90.0039047,97.5678883 90.2624463,93.3903017 C90.5221071,89.2127151 87.2394121,85.4158093 83.332188,88.7099084" id="Fill-92" fill="#7773A8"></path>
            <path d="M99.2356417,88.8266776 C99.2356417,88.8266776 102.381723,95.4764148 101.284617,105.030836 C100.18751,114.584164 97.6458426,143.676901 106.5333,148.06999 C109.347569,149.461135 115.774915,143.300975 115.774915,141.015914 C115.774915,138.729759 113.62986,131.07901 111.597643,124.123286 C109.565426,117.167563 104.666431,89.5555806 104.666431,89.5555806 L99.2356417,88.8266776" id="Fill-93" fill="#7773A8"></path>
            <path d="M111.640097,127.692129 C111.41881,126.863662 111.196449,126.035196 110.975162,125.216943 C110.592744,123.806281 110.086791,121.569421 109.520683,118.891092 C106.412998,120.433401 103.28168,121.922371 100.259931,123.547527 C100.147139,124.323788 99.939817,125.917168 99.9247781,128.457041 C103.835972,128.285674 107.745017,128.049618 111.640097,127.692129" id="Fill-94" fill="#665D99"></path>
            <path d="M122.577604,116.635083 C121.99527,114.716343 118.823317,115.520725 115.345859,116.591753 C113.252547,117.236148 102.316146,121.470264 98.8596438,122.813494 C98.3478961,123.011256 98.1118746,122.816827 97.5802746,122.953483 C96.7751544,123.161244 94.1072285,123.924519 94.4403057,127.642009 C94.5318467,128.658597 95.0027869,128.749701 95.394318,129.690739 C95.6744557,130.365131 96.5391328,130.737324 96.9836033,130.886202 C97.656375,131.112851 97.8670298,131.94612 98.2122389,131.868348 C99.0327998,131.682807 98.9390529,129.406316 98.9180977,128.621933 C98.9048629,128.155302 98.6125932,126.195454 98.6125932,126.195454 C98.7030314,125.826594 98.9930952,125.546615 99.3625682,125.474399 C102.33269,124.895555 115.202482,122.706835 117.334396,122.049108 C120.812957,120.97808 123.159938,118.553823 122.577604,116.635083" id="Fill-95" fill="#F1B4A7"></path>
            <path d="M88.0560961,71.1064507 C88.0560961,71.1064507 88.4077875,73.7148469 86.7235511,75.6236896 C85.0415984,77.5314659 87.4863104,79.3091423 88.0560961,80.6069421 C88.6270237,81.9058082 87.9213572,83.8327796 89.5188127,84.7146862 C91.1151262,85.5965929 95.6699867,85.8290665 96.392781,84.2774653 C97.1167172,82.7258641 93.1955864,70.2181457 88.0560961,71.1064507" id="Fill-96" fill="#4B4589"></path>
            <path d="M105.432792,73.7228204 C105.672457,82.3807195 97.3711218,84.0437026 92.5432605,84.0437026 C87.7153992,84.0437026 87.5203229,73.6643941 87.5203229,69.9240346 C87.5203229,66.183675 91.3159515,65.595085 96.1438128,65.595085 C99.945015,65.595085 103.543338,68.4558055 105.025918,71.1985916 C105.427218,71.9386569 105.409383,72.9286567 105.432792,73.7228204" id="Fill-97" fill="#4B4589"></path>
            <path d="M97.1443762,68.3282135 C93.2020908,68.3282135 91.7309427,71.137141 91.6558619,76.3314794 C91.6264824,78.2759539 92.5013368,80.2040976 93.2064434,81.4343643 C93.7287445,82.3488988 93.8723773,83.4321867 93.5742304,84.4414409 L92.708081,87.373395 C92.1204923,90.0930465 93.4099232,91.5846087 95.3163223,92.1257083 C96.2597287,92.394625 97.390293,92.1866773 98.2150935,91.6531988 C99.1954963,91.0195571 99.2760177,89.6564651 99.0943004,88.5034984 L98.8701462,87.6673525 C98.5687349,86.5416041 99.2216113,85.3276684 100.359793,85.0783488 C103.395668,84.4142226 103.829831,81.2481912 104.642662,76.3314794 C105.491401,71.2057311 101.086662,68.3282135 97.1443762,68.3282135" id="Fill-98" fill="#F1B4A7"></path>
            <path d="M106.643859,66.1985944 L104.338718,66.8833664 C103.492316,67.1347384 102.58934,67.1401559 101.738501,66.8996189 L97.1370923,65.595085 C94.3494021,65.595085 89.7457752,67.1325714 90.3270524,71.0624256 L90.8406619,73.8405194 C91.0458838,74.9500233 91.9932325,75.7810677 93.1435846,75.8774992 L93.1446939,75.8774992 C93.2511875,76.2610582 93.6072752,76.5275992 94.0155005,76.5275992 C94.5135796,76.5275992 94.9173676,76.1332052 94.9173676,75.6467137 C94.9173676,74.3941878 95.8192347,73.3236899 97.0694245,73.0495644 C98.6047063,72.7125959 100.245372,72.6335005 101.962581,73.0831529 C105.159605,73.9228654 108.53301,71.986651 108.852491,68.7664892 C108.872458,68.5627913 108.883551,68.3558428 108.883551,68.1467273 C108.883551,66.8476109 107.784227,65.891964 106.643859,66.1985944" id="Fill-99" fill="#4B4589"></path>
            <path d="M93.0334141,76.8686431 C93.0334141,78.1894846 92.593358,79.2607277 91.4558343,79.2607277 C90.3183107,79.2607277 89.5877321,77.444272 89.5877321,76.1234305 C89.5877321,74.802589 90.3183107,74.4777527 91.4558343,74.4777527 C92.593358,74.4777527 93.0334141,75.5478016 93.0334141,76.8686431" id="Fill-100" fill="#F1B4A7"></path>
            <path d="M103.354619,80.165707 C103.447381,80.7546257 103.12106,81.3105741 102.681271,81.3105741 C102.316852,81.3105741 102.016206,80.9206144 101.994672,80.4203746 L101.992187,76.4082237 C101.992187,76.2592887 102.035255,76.1160382 102.11228,76.0103057 C102.190133,75.9045732 102.29449,75.844317 102.402987,75.844317 C102.557866,75.844317 102.692867,75.9932521 102.725996,76.2024433 L103.354619,80.165707" id="Fill-101" fill="#EA8F84"></path>
            <path d="M102.928734,90.4753566 C102.928734,90.4753566 105.407392,88.9187685 109.694713,93.1182908 C113.982034,97.3167245 123.134668,112.955536 124.02114,117.705851 C124.90653,122.457255 100.385133,125.723913 100.385133,125.723913 C99.6772541,124.953239 99.2778546,123.847299 99.2356417,122.352757 C99.2356417,122.352757 114.376021,116.664135 114.671512,114.661252 C114.967003,112.65837 103.342204,100.838097 102.422179,99.1312926 C100.761802,96.0540377 100.141597,92.752547 102.928734,90.4753566" id="Fill-102" fill="#7773A8"></path>
            <path d="M96.2122645,124.357349 C96.2122645,124.357349 93.1907888,126.85566 93.0854015,127.072595 C92.8622944,127.532944 93.4060479,128.023848 93.7917205,127.629699 C94.3309894,127.081761 95.9600077,126.403459 96.4790961,127.179534 L96.2122645,124.357349" id="Fill-103" fill="#F1B4A7"></path>
            <path d="M212.943148,8.19883477 C212.943148,12.7279143 209.240591,16.3987712 204.673511,16.3987712 C200.106431,16.3987712 196.403874,12.7279143 196.403874,8.19883477 C196.403874,3.67085696 200.106431,0 204.673511,0 C209.240591,0 212.943148,3.67085696 212.943148,8.19883477" id="Fill-104" fill="#FF8B08" opacity="0.5"></path>
            <path d="M28.2545924,84.0442697 C28.2545924,91.9692084 21.9292707,98.3926275 14.1278545,98.3926275 C6.32532172,98.3926275 0,91.9692084 0,84.0442697 C0,76.119331 6.32532172,69.6947778 14.1278545,69.6947778 C21.9292707,69.6947778 28.2545924,76.119331 28.2545924,84.0442697" id="Fill-105" fill="#FF8B08" opacity="0.5"></path>
            <path d="M33.7676836,53.6376476 C33.7676836,56.4677093 31.4537212,58.7622636 28.5985993,58.7622636 C25.7446,58.7622636 23.4306376,56.4677093 23.4306376,53.6376476 C23.4306376,50.8075859 25.7446,48.5130316 28.5985993,48.5130316 C31.4537212,48.5130316 33.7676836,50.8075859 33.7676836,53.6376476" id="Fill-106" fill="#FF8B08" opacity="0.5"></path>
            <path d="M233.233554,244.748369 C231.985786,245.250377 230.538328,245.726152 229.545654,246.63716 C229.032003,247.109358 228.354446,247.334725 227.6665,247.300145 C227.162083,247.275104 226.619575,247.257218 226.045902,247.248871 C225.284082,247.236947 224.658467,247.876083 224.658467,248.661887 C224.658467,249.53593 225.424903,250.223955 226.255979,250.055824 C227.112449,249.880539 227.805012,249.591974 228.417931,249.351105 C228.760749,249.216362 229.138196,249.20086 229.486787,249.317717 C231.174332,249.879346 232.799547,248.612998 232.878038,248.590342 C232.878038,248.590342 233.99999,248.318471 234.760656,247.880853 C235.136948,247.666218 235.6102,247.691258 235.629822,247.408655 C235.648291,247.143938 235.120789,246.847026 234.661388,246.910224 C233.853398,247.023504 232.679503,247.382422 232.469426,247.061661 C232.142767,246.557268 233.18392,246.228161 234.300101,245.850164 C235.417436,245.47336 236.972241,246.662201 237.745603,245.54252 C237.921053,245.29092 234.472088,244.249938 233.233554,244.748369" id="Fill-107" fill="#F1B4A7"></path>
            <path d="M263.042454,233.714377 C262.538487,233.582593 262.021337,233.870217 261.848954,234.375389 L256.431056,250.899644 C256.248533,251.452928 256.418888,252.064782 256.858971,252.435033 L258.12041,253.497672 L264.628378,234.129602 L263.042454,233.714377" id="Fill-108" fill="#D2ECF4"></path>
            <path d="M224.152892,237.421999 C225.236261,234.430833 224.526089,231.19658 222.523997,228.942305 C220.803998,227.008512 219.832588,224.535132 219.754656,221.957104 C219.63172,217.903115 217.046782,214.154347 212.984423,212.703457 C210.893422,211.955666 204.794944,209.959739 204.794944,209.959739 C204.794944,209.959739 207.888089,207.879875 205.013374,207.722905 C202.65455,207.595366 198.221189,209.83874 197.622976,214.972994 C197.421011,216.709483 196.734987,218.357677 195.762479,219.815107 C195.095115,220.812525 194.626424,221.981086 194.427751,223.292446 C193.904178,226.750164 195.670278,230.250395 198.763422,231.92039 C198.910506,231.999965 199.068566,232.080631 199.235407,232.162387 C203.067262,234.056937 204.878365,238.397616 203.599616,242.453785 C203.013477,244.313453 202.892737,246.212364 203.874026,247.697046 C205.984784,250.890966 210.158005,252.26882 213.768137,250.95092 C216.617606,249.910988 218.501153,247.584768 219.108147,244.946787 C219.438536,243.507888 220.154196,242.159465 221.333059,241.261243 C222.581074,240.308517 223.581022,239.004788 224.152892,237.421999" id="Fill-109" fill="#7773A8"></path>
            <path d="M199.341819,234.937466 C198.983338,232.887835 199.140936,230.767932 199.951127,228.840746 C200.480525,227.584349 201.290715,226.383319 202.491573,226.174629 C204.903276,225.75725 211.379249,241.315278 212.563459,244.642601 C212.706629,245.044009 213.076209,245.327231 213.51682,245.373015 L226.930463,246.77954 C227.421017,247.782529 227.570846,248.773805 227.232342,249.749109 L211.876462,252.079832 C210.63565,252.284263 209.37708,251.869013 208.521386,250.984212 C205.916569,248.287217 200.582631,242.035045 199.341819,234.937466" id="Fill-110" fill="#393275"></path>
            <path d="M268.320606,258.280647 L63.8420363,258.280647 C63.2177114,258.280647 62.7114125,257.821905 62.7114125,257.255224 C62.7114125,256.689543 63.2177114,256.230801 63.8420363,256.230801 L268.320606,256.230801 C268.944931,256.230801 269.452333,256.689543 269.452333,257.255224 C269.452333,257.821905 268.944931,258.280647 268.320606,258.280647" id="Fill-111" fill="#001433"></path>
            <path d="M90.2750057,253.868205 C90.2344743,252.9922 89.5465669,252.289606 88.6683872,252.213529 C86.910902,252.062494 84.0106572,251.640713 81.9717041,250.463757 C78.8586697,248.665877 78.0052592,249.221911 75.6882158,251.535548 C73.3700466,253.848066 69.9710409,254.038259 67.9433465,254.298935 C65.9145262,254.559611 65.0993953,256.157228 68.3013736,256.22883 C71.2027442,256.294838 81.2747897,254.673726 88.2991014,255.668322 C89.3788121,255.821594 90.3245441,254.950065 90.2750057,253.868205" id="Fill-112" fill="#F1B4A7"></path>
            <path d="M113.441545,210.415671 C113.782634,209.910489 113.797414,209.268624 113.475654,208.753601 C112.617248,207.382394 111.014132,204.518605 110.799246,201.982855 C110.503636,198.49907 109.549725,198.128385 106.283233,197.569623 C103.016741,197.011955 101.394297,195.061211 100.007203,193.588311 C98.6201096,192.117598 96.818025,192.357067 98.6041922,194.95077 C100.170926,197.230649 107.131407,204.109648 110.637797,210.316165 C111.229017,211.362613 112.768464,211.415099 113.441545,210.415671" id="Fill-113" fill="#F1B4A7"></path>
            <path d="M211.250702,215.79783 C208.876754,222.388912 202.832897,221.889196 199.140329,220.563441 C195.446681,219.238763 197.678192,213.884046 198.697911,211.051604 C199.71763,208.220238 203.401566,206.911715 207.095214,208.23747 C210.787782,209.563225 212.270421,212.967541 211.250702,215.79783" id="Fill-114" fill="#7773A8"></path>
            <path d="M108.883551,208.845329 C109.663258,207.629834 110.729994,206.926764 112.260815,207.047983 C112.260815,207.047983 127.928633,230.56555 131.350985,233.599329 C134.773337,236.634209 166.238741,234.952572 166.238741,234.952572 L166.771009,252.120473 C166.771009,252.120473 133.3074,252.773953 124.773514,243.835713 C116.241828,234.896371 108.883551,208.845329 108.883551,208.845329" id="Fill-115" fill="#7773A8"></path>
            <path d="M166.229876,235.049055 C166.229876,235.049055 158.85973,235.433681 150.810931,235.500524 C150.294394,235.753654 138.269831,241.527428 131.775113,241.770696 C122.211365,242.126831 119.220597,237.121214 119.220597,237.121214 C120.763498,239.804829 122.39696,242.161897 124.074026,243.882304 C132.750048,252.770343 166.771009,252.120533 166.771009,252.120533 L166.229876,235.049055" id="Fill-116" fill="#665D99"></path>
            <path d="M179.175464,253.827215 L176.63588,237.384862 C176.63588,237.384862 171.371022,230.967491 157.856066,235.030376 C144.342203,239.095492 135.715263,244.054421 129.107976,244.786432 C122.499596,245.517327 86.653778,251.522943 86.653778,251.522943 C85.9503406,253.002587 85.99294,254.432017 86.653778,255.82016 L158.753932,256.230801 C158.753932,256.230801 172.285272,256.23638 179.175464,253.827215" id="Fill-117" fill="#7773A8"></path>
            <path d="M202.553963,224.853168 L202.371363,224.759443 C198.399001,222.71183 193.532228,223.012852 190.044247,225.819085 C189.845246,225.980072 189.649526,226.147674 189.459272,226.320789 L184.304933,231.020266 C183.463006,231.787707 182.44176,232.333517 181.329761,232.567278 C180.56,232.728264 179.795706,233.012747 179.058747,233.436163 L178.994235,233.473652 C176.858804,234.676639 175.739151,232.308156 174.737586,233.473652 C173.736022,234.639149 167.278336,232.756933 167.278336,232.756933 C167.278336,232.756933 161.049174,232.711724 164.229906,241.481066 C167.411732,250.251511 173.376289,255.547519 177.552026,255.547519 C179.856937,255.547519 183.829299,253.696176 186.926932,252.037797 C187.264796,251.856963 187.581885,251.651871 187.88148,251.424726 C188.928968,250.627513 190.054088,249.939462 191.292923,249.502814 L192.24419,249.168713 C193.891961,248.588721 195.679688,248.635032 197.314337,249.249206 C199.504439,250.070677 202.740936,250.401471 204.003826,246.026172 L205.361842,229.628727 C205.402298,228.189774 203.910886,225.294226 202.553963,224.853168" id="Fill-118" fill="#4B4589"></path>
            <path d="M198.39094,226.725678 C197.163056,227.167359 195.402609,229.270807 194.034111,231.134829 C192.833907,232.769265 191.901645,234.570971 191.134356,236.442646 C188.685232,242.42501 184.490054,247.90775 178.785764,251.061829 C176.014444,252.594591 173.418062,253.236339 170.905827,253.281163 C173.092546,255.192196 175.324659,256.230801 177.201362,256.230801 C179.535338,256.230801 183.557792,254.395203 186.694488,252.750928 C187.035505,252.571632 187.3577,252.368284 187.661072,252.143071 C188.721769,251.352638 189.85997,250.670439 191.115534,250.237504 L192.078797,249.906244 C193.747346,249.331185 195.557617,249.377102 197.21288,249.986053 C199.4306,250.800538 202.707909,251.128518 203.986724,246.79043 L205.361866,230.532438 C205.389546,229.548497 204.678724,227.874703 203.783,226.789088 C201.878617,226.005215 200.583194,225.936339 198.39094,226.725678" id="Fill-119" fill="#393275"></path>
            <path d="M207.642097,210.162 C204.106653,208.861456 201.83592,210.826267 200.009606,215.335105 C199.325291,217.025381 199.456847,218.995575 199.671318,220.302578 C199.830512,221.272603 199.592826,222.265236 198.982581,223.049007 L197.212648,225.322805 C195.76442,227.501862 196.416675,229.229819 197.942289,230.33119 C198.697357,230.87703 199.782975,231.069743 200.702765,230.875954 C201.796122,230.645559 202.328981,229.482822 202.556718,228.416979 L202.640737,227.612752 C202.751289,226.53076 203.74736,225.686699 204.852877,225.843884 C205.711864,225.966617 206.464721,226.40695 207.202101,226.230387 C207.924003,226.057052 210.911111,222.44503 211.950297,217.864059 C213.022649,213.13021 211.177541,211.46362 207.642097,210.162" id="Fill-120" fill="#F1B4A7"></path>
            <path d="M208.875696,221.964381 C208.784489,222.575735 208.29495,222.916898 207.867766,222.667874 C207.513176,222.459939 207.340999,221.918312 207.475948,221.43396 L208.714688,217.632608 C208.760292,217.491909 208.846845,217.379848 208.954804,217.323818 C209.061833,217.267788 209.180961,217.270278 209.287059,217.332534 C209.437829,217.420937 209.522521,217.637588 209.490878,217.854239 L208.875696,221.964381" id="Fill-121" fill="#EA8F84"></path>
            <path d="M216.259211,210.847977 C215.528654,210.350548 214.7293,210.165662 213.969258,210.232793 C212.098639,210.395669 210.216007,210.316432 208.450221,209.677037 L208.209977,209.590097 C206.258549,208.88247 204.11711,208.918787 202.189705,209.690243 C200.766811,210.260306 200.131259,211.934179 200.813768,213.315317 L202.059756,215.83548 C202.232294,216.183241 202.73462,216.153527 202.86457,215.787058 L203.258787,214.684349 C203.455349,214.130793 204.025381,213.806143 204.597596,213.921696 L205.168719,214.036149 C205.828295,214.169311 206.500976,214.113185 207.15946,213.971219 C208.06474,213.776429 209.015884,213.866671 209.846906,214.29807 C210.604764,214.693153 211.031741,215.222497 211.334229,215.691314 C211.732814,216.307598 212.325778,216.805028 213.068347,217.074652 C215.149725,217.8285 217.474623,216.475976 217.745442,214.106582 C217.889588,212.843199 217.305361,211.557805 216.259211,210.847977" id="Fill-122" fill="#7773A8"></path>
            <path d="M201.641039,216.900737 C201.184413,218.13528 200.587098,219.675616 199.528221,219.266208 C198.469343,218.856799 198.237328,216.199436 198.69272,214.964893 C199.148111,213.731614 199.939183,213.689915 200.996827,214.100587 C202.056938,214.508731 202.09643,215.667458 201.641039,216.900737" id="Fill-123" fill="#F1B4A7"></path>
            <path d="M266.118227,233.020248 C265.37296,232.890518 264.651333,233.375065 264.400284,234.078045 L257.383285,253.789219 C257.299977,254.024285 257.073695,254.181735 256.820394,254.181735 L239.143367,254.181735 C237.993943,254.181735 237.062922,255.098714 237.062922,256.230801 L258.753362,256.230801 C259.343272,256.230801 259.869012,255.863787 260.064898,255.31493 L267.299172,234.995025 C267.604259,234.135703 267.068387,233.187677 266.118227,233.020248" id="Fill-124" fill="#466B7E"></path>
            <path d="M254.291332,253.839655 C254.291332,253.953763 254.176146,254.046006 254.034705,254.046006 L252.479702,254.046006 C252.338261,254.046006 252.223923,253.953763 252.223923,253.839655 C252.223923,253.725547 252.338261,253.63262 252.479702,253.63262 L254.034705,253.63262 C254.176146,253.63262 254.291332,253.725547 254.291332,253.839655" id="Fill-125" fill="#3A5264"></path>
            <path d="M251.498262,253.839655 C251.498262,254.008426 251.360435,254.145082 251.190218,254.145082 C251.020001,254.145082 250.882174,254.008426 250.882174,253.839655 C250.882174,253.670884 251.020001,253.533545 251.190218,253.533545 C251.360435,253.533545 251.498262,253.670884 251.498262,253.839655" id="Fill-126" fill="#3A5264"></path>
            <path d="M250.119645,253.839655 C250.119645,254.008426 249.981817,254.145082 249.811601,254.145082 C249.642073,254.145082 249.504246,254.008426 249.504246,253.839655 C249.504246,253.670884 249.642073,253.533545 249.811601,253.533545 C249.981817,253.533545 250.119645,253.670884 250.119645,253.839655" id="Fill-127" fill="#3A5264"></path>
            <path d="M255.669605,253.334368 L239.130331,253.334368 C239.130331,253.136899 239.392983,252.977694 239.71599,252.977694 L255.086181,252.977694 C255.409188,252.977694 255.669605,253.136899 255.669605,253.334368" id="Fill-128" fill="#3A5264"></path>
            <path d="M238.928731,251.632452 C238.420514,251.919989 237.837169,252.203623 237.285864,252.586139 C236.468298,253.153408 235.521468,253.391504 234.575742,253.29002 C233.741603,253.201547 232.699758,253.15601 231.487771,253.148203 C230.807202,253.1443 230.232696,253.758407 230.17635,254.557267 C230.112271,255.439395 230.69893,256.19662 231.449102,256.222641 C232.550608,256.261674 233.504067,256.14848 234.186845,256.139373 C234.510558,256.13547 234.795601,256.119857 235.046395,256.096437 C235.491637,256.052201 235.942404,256.056104 236.378808,256.161491 C237.180907,256.356652 238.275783,255.418578 238.712187,254.352998 C239.062414,253.498192 239.104398,253.729783 239.957318,253.32645 C240.811344,252.920515 243.261834,253.513805 243.265148,252.833343 C243.267358,252.221838 240.084373,250.979313 238.928731,251.632452" id="Fill-129" fill="#F1B4A7"></path>
            <path d="M192.843728,227.258563 C193.734741,225.688439 196.527386,223.870689 200.026695,228.059513 C204.661717,233.606992 212.749962,249.268786 215.157452,249.53723 C217.564942,249.805674 233.317872,253.392963 233.317872,253.392963 C233.695345,254.383467 233.73814,255.333431 233.317872,256.22094 C233.317872,256.22094 215.492131,256.230801 211.599985,256.230801 C207.708937,256.230801 188.75297,234.4693 192.843728,227.258563" id="Fill-130" fill="#4B4589"></path>
        </g>
    </g>
</svg>